<?xml version="1.0" encoding="UTF-8"?>
<!DOCTYPE svg PUBLIC "-//W3C//DTD SVG 1.1//EN" "http://www.w3.org/Graphics/SVG/1.1/DTD/svg11.dtd">
<!-- Creator: CorelDRAW 2020 (64-Bit Evaluation Version) -->
<svg xmlns="http://www.w3.org/2000/svg" xml:space="preserve" width="92px" height="75px" version="1.1" style="shape-rendering:geometricPrecision; text-rendering:geometricPrecision; image-rendering:optimizeQuality; fill-rule:evenodd; clip-rule:evenodd"
viewBox="0 0 92 75.09"
 xmlns:xlink="http://www.w3.org/1999/xlink"
 xmlns:xodm="http://www.corel.com/coreldraw/odm/2003">
 <defs>
  <style type="text/css">
   <![CDATA[
    .fil0 {fill:#BE3662;fill-rule:nonzero}
   ]]>
  </style>
 </defs>
 <g id="Layer_x0020_1">
  <metadata id="CorelCorpID_0Corel-Layer"/>
  <g id="surface1">
   <path class="fil0" d="M44.39 26.1l0 18.37c0,4.29 3.37,7.65 7.66,7.65 4.28,0 7.65,-3.36 7.65,-7.65l0 -18.37c3.83,-2.91 6.12,-7.35 6.12,-12.25 0,-5.81 -3.21,-11.02 -8.42,-13.62 -0.46,-0.31 -1.07,-0.31 -1.52,0 -0.46,0.31 -0.77,0.92 -0.77,1.38l0 12.24 -6.12 0 0 -12.24c0,-0.46 -0.31,-1.07 -0.62,-1.38 -0.46,-0.15 -1.07,-0.31 -1.53,0 -5.35,2.6 -8.57,7.81 -8.57,13.62 0,4.9 2.3,9.34 6.12,12.25zm1.53 -21.73l0 11.02c0,0.91 0.62,1.52 1.53,1.52l9.19 0c0.92,0 1.53,-0.61 1.53,-1.52l0 -11.02c2.91,2.29 4.59,5.81 4.59,9.48 0,4.14 -2.14,7.96 -5.51,10.26 -0.31,0.31 -0.61,0.76 -0.61,1.22l0 19.14c0,2.6 -1.99,4.59 -4.59,4.59 -2.6,0 -4.6,-1.99 -4.6,-4.59l0 -19.14c0,-0.46 -0.15,-0.91 -0.61,-1.22 -3.52,-2.3 -5.51,-6.12 -5.51,-10.26 0,-3.82 1.68,-7.19 4.59,-9.48zm0 0z"/>
   <path class="fil0" d="M84.81 41.26c-3.98,-0.31 -7.2,-2.15 -9.03,-5.06l-0.46 -0.76c-2.3,-3.83 -6.44,-6.12 -10.87,-6.43 -0.92,-0.15 -1.69,0.46 -1.69,1.37 -0.15,0.92 0.46,1.69 1.38,1.69 3.52,0.15 6.58,2.14 8.42,5.05l0.46 0.77c2.3,3.83 6.58,6.27 11.48,6.58 2.45,0.15 4.28,2.14 4.28,4.59l0 10.72c0,2.6 -1.98,4.59 -4.59,4.59l-3.19 0c-0.51,-3.05 -2.55,-5.6 -5.28,-6.84 -0.06,-0.03 -0.12,-0.05 -0.18,-0.08 -0.04,-0.02 -0.08,-0.03 -0.12,-0.05 -0.1,-0.04 -0.2,-0.08 -0.3,-0.12 -0.03,0 -0.05,-0.01 -0.08,-0.02 -0.11,-0.04 -0.23,-0.09 -0.34,-0.12 -0.03,-0.01 -0.05,-0.01 -0.07,-0.02 -0.12,-0.04 -0.24,-0.07 -0.36,-0.1 -0.02,-0.01 -0.05,-0.02 -0.08,-0.02 -0.12,-0.03 -0.23,-0.06 -0.35,-0.08 -0.03,-0.01 -0.06,-0.02 -0.09,-0.02 -0.11,-0.03 -0.23,-0.05 -0.34,-0.07 -0.04,0 -0.07,-0.01 -0.11,-0.01 -0.11,-0.02 -0.22,-0.03 -0.33,-0.04 -0.04,-0.01 -0.08,-0.01 -0.12,-0.02 -0.11,-0.01 -0.22,-0.02 -0.34,-0.03 -0.04,0 -0.07,0 -0.11,0 -0.15,-0.01 -0.3,-0.02 -0.45,-0.02 -0.16,0 -0.31,0.01 -0.46,0.02 -0.04,0 -0.08,0 -0.11,0 -0.11,0.01 -0.23,0.02 -0.34,0.03 -0.04,0.01 -0.08,0.01 -0.11,0.02 -0.12,0.01 -0.23,0.02 -0.34,0.04 -0.04,0 -0.07,0.01 -0.1,0.01 -0.12,0.02 -0.23,0.04 -0.35,0.07 -0.03,0 -0.06,0.01 -0.09,0.02 -0.12,0.02 -0.24,0.05 -0.35,0.08 -0.03,0 -0.05,0.01 -0.08,0.02 -0.12,0.03 -0.24,0.06 -0.35,0.1 -0.03,0.01 -0.05,0.01 -0.07,0.02 -0.12,0.03 -0.23,0.08 -0.34,0.12 -0.03,0.01 -0.06,0.02 -0.09,0.02 -0.1,0.04 -0.2,0.08 -0.3,0.12 -0.04,0.02 -0.07,0.03 -0.11,0.05 -0.06,0.03 -0.13,0.05 -0.18,0.08 -2.74,1.25 -4.77,3.79 -5.29,6.84l-30.88 0c-0.51,-3.05 -2.54,-5.59 -5.28,-6.84 -0.05,-0.03 -0.12,-0.05 -0.18,-0.08 -0.04,-0.02 -0.08,-0.03 -0.11,-0.05 -0.11,-0.04 -0.21,-0.08 -0.31,-0.12 -0.02,0 -0.05,-0.01 -0.08,-0.02 -0.11,-0.04 -0.22,-0.09 -0.34,-0.12 -0.02,-0.01 -0.05,-0.01 -0.07,-0.02 -0.11,-0.04 -0.23,-0.07 -0.35,-0.1 -0.03,-0.01 -0.06,-0.02 -0.08,-0.02 -0.12,-0.03 -0.24,-0.06 -0.35,-0.08 -0.03,-0.01 -0.06,-0.02 -0.09,-0.02 -0.12,-0.03 -0.23,-0.05 -0.35,-0.07 -0.03,0 -0.06,-0.01 -0.1,-0.01 -0.11,-0.02 -0.22,-0.03 -0.34,-0.04 -0.04,-0.01 -0.07,-0.01 -0.11,-0.02 -0.11,-0.01 -0.23,-0.02 -0.34,-0.03 -0.04,0 -0.07,0 -0.11,0 -0.16,-0.01 -0.3,-0.02 -0.46,-0.02 -0.15,0 -0.3,0.01 -0.45,0.02 -0.04,0 -0.08,0 -0.11,0 -0.12,0.01 -0.23,0.02 -0.34,0.03 -0.04,0.01 -0.08,0.01 -0.12,0.02 -0.11,0.01 -0.22,0.02 -0.33,0.04 -0.04,0 -0.08,0.01 -0.11,0.01 -0.11,0.02 -0.23,0.04 -0.34,0.07 -0.03,0 -0.06,0.01 -0.09,0.02 -0.12,0.02 -0.24,0.05 -0.36,0.08 -0.02,0 -0.05,0.01 -0.07,0.02 -0.12,0.03 -0.24,0.06 -0.36,0.1 -0.02,0.01 -0.04,0.01 -0.07,0.02 -0.11,0.03 -0.23,0.08 -0.34,0.12 -0.03,0.01 -0.06,0.02 -0.08,0.02 -0.1,0.04 -0.2,0.08 -0.3,0.12 -0.04,0.02 -0.08,0.03 -0.12,0.05 -0.06,0.03 -0.12,0.05 -0.18,0.08 -2.74,1.24 -4.77,3.79 -5.28,6.84l-6.26 0c-2.6,0 -4.59,-1.99 -4.59,-4.59l0 -6.89c0,-2.3 1.68,-4.29 3.98,-4.44l9.34 -1.22c6.74,-0.77 12.86,-3.98 17.3,-9.04l2.3 -2.6c1.22,-1.53 2.9,-3.06 4.43,-3.67 0.77,-0.31 1.23,-1.23 0.92,-1.99 -0.3,-0.77 -1.22,-1.23 -1.99,-0.92 -2.3,0.77 -4.28,2.6 -5.82,4.44l-2.14 2.44c-3.98,4.45 -9.34,7.36 -15.31,8.12l-9.33 1.22c-3.83,0.46 -6.74,3.83 -6.74,7.66l0 6.89c0,4.28 3.37,7.65 7.65,7.65l6.26 0c0.73,4.33 4.52,7.66 9.05,7.66 4.53,0 8.32,-3.33 9.05,-7.66l30.89 0c0.73,4.33 4.52,7.66 9.05,7.66 4.52,0 8.31,-3.33 9.05,-7.66l3.19 0c4.29,0 7.66,-3.37 7.81,-7.81l0 -10.71c0,-3.98 -3.22,-7.35 -7.19,-7.65zm-61.85 30.76c-3.37,0 -6.12,-2.75 -6.12,-6.12 0,-3.37 2.75,-6.12 6.12,-6.12 3.37,0 6.13,2.75 6.13,6.12 0,3.37 -2.76,6.12 -6.13,6.12zm48.99 0c-3.37,0 -6.13,-2.75 -6.13,-6.12 0,-3.37 2.76,-6.12 6.13,-6.12 3.37,0 6.12,2.75 6.12,6.12 0,3.37 -2.75,6.12 -6.12,6.12zm0 0z"/>
  </g>
 </g>
</svg>
