<?xml version="1.0" encoding="UTF-8"?>
<!DOCTYPE svg PUBLIC "-//W3C//DTD SVG 1.1//EN" "http://www.w3.org/Graphics/SVG/1.1/DTD/svg11.dtd">
<!-- Creator: CorelDRAW 2020 (64-Bit Evaluation Version) -->
<svg xmlns="http://www.w3.org/2000/svg" xml:space="preserve" width="75px" height="75px" version="1.1" style="shape-rendering:geometricPrecision; text-rendering:geometricPrecision; image-rendering:optimizeQuality; fill-rule:evenodd; clip-rule:evenodd"
viewBox="0 0 75 74.98"
 xmlns:xlink="http://www.w3.org/1999/xlink"
 xmlns:xodm="http://www.corel.com/coreldraw/odm/2003">
 <defs>
  <style type="text/css">
   <![CDATA[
    .fil0 {fill:#BE3662;fill-rule:nonzero}
   ]]>
  </style>
 </defs>
 <g id="Layer_x0020_1">
  <metadata id="CorelCorpID_0Corel-Layer"/>
  <g id="surface1">
   <path class="fil0" d="M15 31.24c-1.38,0 -2.5,1.12 -2.5,2.5 0,1.37 1.12,2.5 2.5,2.5 1.37,0 2.5,-1.13 2.5,-2.5 0,-1.38 -1.13,-2.5 -2.5,-2.5zm0 0z"/>
   <path class="fil0" d="M59.98 31.24c-1.37,0 -2.5,1.12 -2.5,2.5 0,1.37 1.13,2.5 2.5,2.5 1.38,0 2.5,-1.13 2.5,-2.5 0,-1.38 -1.12,-2.5 -2.5,-2.5zm0 0z"/>
   <path class="fil0" d="M37.49 21.24l5 0 0 1.25c0,0.75 0.49,1.25 1.24,1.25 0.75,0 1.25,-0.5 1.25,-1.25l0 -2.5c0,-0.75 -0.5,-1.25 -1.25,-1.25l-6.24 0c-0.75,0 -1.25,0.5 -1.25,1.25 0,0.75 0.5,1.25 1.25,1.25zm0 0z"/>
   <path class="fil0" d="M73.85 72.48l-29.76 -5.13 22.39 -4.87c0.62,-0.12 1,-0.62 1,-1.25 0,-0.62 -0.38,-1.12 -1,-1.25l-23.5 -5.11 30.6 -7.39 0.15 0c0.69,0 1.16,-0.42 1.23,-1.07 0.04,-0.18 0.05,-0.37 0.02,-0.55l0 -4.62c0,-0.75 -0.5,-1.25 -1.25,-1.25l-7.6 0c1.33,-1.31 2.24,-3.04 2.51,-5l1.34 0c2.75,0 5,-2.25 4.87,-5l0 -5.66c0.08,-0.17 0.13,-0.37 0.13,-0.59 0,-0.22 -0.05,-0.42 -0.13,-0.59l0 -3.78c0,-1.75 -1.37,-3.12 -3.12,-3.12l-5.12 0c-3.63,0 -7.13,-2 -9.13,-5.13l-4.25 -7c-1.5,-2.5 -4.37,-4.12 -7.37,-4.12l-25.49 0c-3,0 -5.75,1.62 -7.37,4.12l-6.25 10.13c-0.75,1.25 -2.13,2 -3.62,2 -0.88,0 -1.63,0.37 -2.25,0.87 -0.5,0.63 -0.88,1.38 -0.88,2.25l0 11.25c0,2.37 2,4.37 4.38,4.37l1.96 0c0.27,1.96 1.18,3.69 2.5,5l-7.59 0c-0.75,0 -1.25,0.5 -1.25,1.25l0 4.99c0,0.57 0.29,1 0.75,1.17 0.08,0.04 0.16,0.07 0.25,0.08l30.79 7.44 -23.29 5.06c-0.63,0.13 -1,0.63 -1,1.25 0,0.63 0.37,1.13 1,1.25l22.33 4.86 -29.83 5.14c-0.62,0.12 -1,0.75 -1,1.37 0,0.63 0.63,1.13 1.25,1.13l72.48 0c0.62,0 1.25,-0.5 1.12,-1.13 0.13,-0.62 -0.37,-1.25 -1,-1.37zm-36.36 -18.75l-25.99 -6.25 51.7 0 -25.71 6.25zm22.49 -13.74c-3.5,0 -6.25,-2.75 -6.25,-6.25 0,-3.5 2.75,-6.25 6.25,-6.25 3.5,0 6.25,2.75 6.25,6.25 0,3.5 -2.75,6.25 -6.25,6.25zm-36.33 -5l27.67 0c0.27,1.96 1.18,3.69 2.51,5l-32.68 0c1.33,-1.31 2.23,-3.04 2.5,-5zm-3.66 -22.49l0 -5 16.25 0 0 5 -16.25 0zm18.75 -5l13.42 0 3.12 5 -16.54 0 0 -5zm-36.24 23.12l0 -5.63 3.75 0c0.75,0 1.25,-0.5 1.25,-1.25 0,-0.75 -0.5,-1.25 -1.25,-1.25l-3.75 0 0 -3.12c0,-0.12 0,-0.25 0.25,-0.37 0.13,-0.13 0.25,-0.25 0.5,-0.25 2.25,0 4.5,-1.25 5.62,-3.13l6.25 -10.12c1.13,-1.88 3.13,-3 5.25,-3l25.49 0c1.89,0 3.68,0.89 4.76,2.5l-30.88 0c-1.24,0 -2.24,1 -2.24,2.25l0 5.5c0,1.25 1,2.25 2.24,2.25l37.49 0c2.43,2.44 5.79,3.87 9.38,3.87l5.12 0c0.37,0 0.62,0.25 0.62,0.63l0 2.99 -3.62 0c-0.75,0 -1.25,0.5 -1.25,1.25 0,0.75 0.5,1.25 1.25,1.25l3.62 0 0 5c0,1.38 -1.12,2.5 -2.5,2.5l-1.21 0c-0.6,-4.27 -4.21,-7.5 -8.66,-7.5 -0.02,0 -0.04,0 -0.06,0 -0.02,0 -0.04,0 -0.06,0 -4.38,0 -8,3.25 -8.63,7.5l-27.58 0c-0.56,-4 -3.77,-7.09 -7.83,-7.46 -0.03,0 -0.07,0 -0.09,-0.01 -0.1,0 -0.21,-0.01 -0.31,-0.02 -0.14,0 -0.28,-0.01 -0.42,-0.01 -0.15,0 -0.29,0.01 -0.43,0.01 -0.1,0.01 -0.2,0.02 -0.3,0.02 -0.04,0.01 -0.07,0.01 -0.09,0.01 -4.07,0.37 -7.29,3.46 -7.84,7.46l-1.96 0c-1,0 -1.88,-0.88 -1.88,-1.87zm6.25 3.12c0,-3.5 2.75,-6.25 6.25,-6.25 3.49,0 6.24,2.75 6.24,6.25 0,3.5 -2.74,6.25 -6.24,6.25 -3.5,0 -6.25,-2.75 -6.25,-6.25zm-6.25 8.75l69.98 0 0 2.49 -69.98 0 0 -2.49zm34.99 13.74l22.87 5 -22.87 5 -22.87 -5 22.87 -5zm-21.62 16.25l21.62 -3.75 21.62 3.75 -43.24 0zm0 0z"/>
  </g>
 </g>
</svg>
