<?xml version="1.0" encoding="UTF-8"?>
<!DOCTYPE svg PUBLIC "-//W3C//DTD SVG 1.1//EN" "http://www.w3.org/Graphics/SVG/1.1/DTD/svg11.dtd">
<!-- Creator: CorelDRAW 2020 (64-Bit Evaluation Version) -->
<svg xmlns="http://www.w3.org/2000/svg" xml:space="preserve" width="75px" height="75px" version="1.1" style="shape-rendering:geometricPrecision; text-rendering:geometricPrecision; image-rendering:optimizeQuality; fill-rule:evenodd; clip-rule:evenodd"
viewBox="0 0 75 75.01"
 xmlns:xlink="http://www.w3.org/1999/xlink"
 xmlns:xodm="http://www.corel.com/coreldraw/odm/2003">
 <defs>
  <style type="text/css">
   <![CDATA[
    .fil0 {fill:#BE3662;fill-rule:nonzero}
   ]]>
  </style>
 </defs>
 <g id="Layer_x0020_1">
  <metadata id="CorelCorpID_0Corel-Layer"/>
  <g id="surface1">
   <path class="fil0" d="M73.63 59.04l-72.26 0c-0.76,0 -1.37,0.62 -1.37,1.38l0 4.88c0,0.76 0.61,1.37 1.37,1.37l72.26 0c0.76,0 1.37,-0.61 1.37,-1.37l0 -4.88c0.01,-0.37 -0.14,-0.71 -0.4,-0.98 -0.26,-0.25 -0.61,-0.4 -0.97,-0.4zm-1.37 2.75l0 2.14 -69.52 0 0 -2.14 69.52 0zm0 0z"/>
   <path class="fil0" d="M73.63 72.26l-72.26 0c-0.76,0 -1.37,0.61 -1.37,1.37 0,0.76 0.61,1.38 1.37,1.38l72.26 0c0.76,0 1.37,-0.62 1.37,-1.38 0,-0.76 -0.61,-1.37 -1.37,-1.37zm0 0z"/>
   <path class="fil0" d="M16.14 54.61l0.08 0c1.82,-0.02 3.56,-0.78 4.81,-2.1l19.42 -20.39 0.34 0.34c0.26,0.25 0.61,0.4 0.98,0.4 0.36,0 0.71,-0.15 0.97,-0.4l2.64 -2.64c0.62,0.37 1.31,0.61 2.04,0.71 0.59,0.08 1.13,0.35 1.56,0.77l0.6 0.6c-0.36,1.11 -0.07,2.33 0.75,3.15l3.51 3.52c0.54,0.53 1.41,0.53 1.94,0l9.43 -9.43c0.26,-0.26 0.4,-0.6 0.4,-0.97 0,-0.37 -0.14,-0.71 -0.4,-0.97l-3.5 -3.52c-0.58,-0.57 -1.36,-0.9 -2.18,-0.9 -0.33,0 -0.66,0.05 -0.97,0.16l-0.61 -0.61c-0.42,-0.42 -0.69,-0.97 -0.77,-1.56 -0.15,-1.19 -0.69,-2.3 -1.54,-3.16l-17.21 -17.21c-0.26,-0.25 -0.61,-0.4 -0.97,-0.4 -0.37,0 -0.72,0.15 -0.98,0.4l-3 3c-0.41,0.43 -0.52,1.07 -0.25,1.6l0.08 0.16c1.6,3.13 1,6.95 -1.5,9.43 -0.25,0.26 -0.4,0.61 -0.4,0.97 0,0.37 0.15,0.72 0.4,0.98l2.35 2.34 -2.5 2.5c-0.54,0.54 -0.54,1.41 0,1.94l0.21 0.21 -20.39 19.42c-2,1.91 -2.64,4.84 -1.62,7.4 1.03,2.57 3.51,4.25 6.28,4.26zm19.97 -49.94l1.35 -1.35 16.23 16.24c0.42,0.42 0.69,0.96 0.76,1.56 0.16,1.19 0.7,2.3 1.55,3.15l1.35 1.35c0.27,0.27 0.61,0.41 0.98,0.41 0.37,0 0.71,-0.14 0.97,-0.41 0.13,-0.12 0.33,-0.12 0.46,0l2.54 2.54 -7.48 7.49 -2.54 -2.54c-0.13,-0.13 -0.13,-0.33 0,-0.46 0.26,-0.26 0.4,-0.61 0.4,-0.97 0,-0.37 -0.14,-0.71 -0.4,-0.98l-1.36 -1.35c-0.85,-0.85 -1.96,-1.39 -3.16,-1.55 -0.58,-0.07 -1.13,-0.34 -1.55,-0.76l-11.54 -11.54c2.4,-3.09 2.95,-7.23 1.44,-10.83zm7.18 23.34l-1.52 1.53 -7.2 -7.19 1.53 -1.53 7.19 7.19zm-29.92 16.93l20.44 -19.47 4.7 4.7 -19.47 20.44c-0.74,0.79 -1.77,1.24 -2.85,1.25 -1.08,-0.01 -2.11,-0.43 -2.89,-1.18 -0.76,-0.77 -1.18,-1.81 -1.17,-2.89 0.01,-1.07 0.46,-2.11 1.24,-2.85zm0 0z"/>
  </g>
 </g>
</svg>
