<?xml version="1.0" encoding="UTF-8"?>
<svg xmlns="http://www.w3.org/2000/svg" xmlns:xlink="http://www.w3.org/1999/xlink" width="30pt" height="30pt" viewBox="0 0 30 30" version="1.1">
<g id="surface1">
<path style=" stroke:none;fill-rule:nonzero;fill:rgb(100%,100%,100%);fill-opacity:1;" d="M 15 0 C 23.285156 0 30 6.714844 30 15 C 30 23.285156 23.285156 30 15 30 C 6.714844 30 0 23.285156 0 15 C 0 6.714844 6.714844 0 15 0 Z M 15 0 "/>
<path style=" stroke:none;fill-rule:nonzero;fill:rgb(27.058824%,38.039216%,61.568627%);fill-opacity:1;" d="M 17.378906 3.597656 C 13.3125 3.597656 11.972656 5.464844 11.972656 8.667969 L 11.972656 11.199219 L 9.300781 11.199219 L 9.300781 15 L 11.972656 15 L 11.972656 26.402344 L 16.898438 26.402344 L 16.898438 15 L 20.25 15 L 20.695312 11.199219 L 16.898438 11.199219 L 16.898438 8.941406 C 16.898438 7.917969 17.121094 7.402344 18.707031 7.402344 L 20.695312 7.402344 L 20.695312 3.597656 Z M 17.378906 3.597656 "/>
</g>
</svg>
