<?xml version="1.0" encoding="UTF-8"?>
<svg xmlns="http://www.w3.org/2000/svg" xmlns:xlink="http://www.w3.org/1999/xlink" width="139pt" height="53pt" viewBox="0 0 139 53" version="1.1">
<defs>
<linearGradient id="linear0" gradientUnits="userSpaceOnUse" x1="44.06" y1="143.39" x2="738.7" y2="144.75" gradientTransform="matrix(0.193189,0,0,0.194795,0.000350489,0)">
<stop offset="0" style="stop-color:rgb(4.313725%,47.058824%,67.843137%);stop-opacity:1;"/>
<stop offset="0.309804" style="stop-color:rgb(23.921569%,39.215686%,67.843137%);stop-opacity:1;"/>
<stop offset="0.54902" style="stop-color:rgb(49.803922%,23.921569%,58.039216%);stop-opacity:1;"/>
<stop offset="0.788235" style="stop-color:rgb(65.490196%,20.784314%,45.882353%);stop-opacity:1;"/>
<stop offset="1" style="stop-color:rgb(74.509804%,21.176471%,38.431373%);stop-opacity:1;"/>
</linearGradient>
</defs>
<g id="surface1">
<path style=" stroke:none;fill-rule:evenodd;fill:url(#linear0);" d="M 25.027344 39.097656 C 22.082031 38.503906 18.988281 38.0625 16.046875 38.0625 C 10.160156 38.0625 0 39.097656 0 46.519531 C 0 50.824219 5.449219 53.050781 8.390625 53.050781 C 16.191406 53.050781 22.078125 48.449219 27.527344 41.476562 C 38.570312 43.851562 46.957031 45.480469 55.644531 45.480469 C 65.066406 45.480469 75.226562 44.292969 87.738281 38.949219 C 89.503906 38.210938 94.507812 36.128906 94.507812 33.460938 C 94.507812 32.867188 94.066406 32.421875 93.480469 32.421875 C 90.09375 32.421875 89.359375 36.429688 86.5625 37.617188 C 74.636719 42.8125 65.066406 43.851562 56.527344 43.851562 C 47.992188 43.851562 39.601562 41.921875 28.558594 39.84375 C 32.976562 33.460938 39.601562 19.210938 46.960938 9.269531 C 47.109375 9.121094 47.402344 8.378906 47.402344 7.785156 C 47.402344 7.335938 47.257812 6.894531 46.667969 6.894531 C 42.839844 6.894531 40.925781 10.308594 39.75 12.683594 C 39.75 12.234375 39.75 12.535156 39.75 12.089844 C 39.75 10.628906 39.457031 6.894531 35.777344 6.894531 C 35.332031 6.894531 34.894531 7.042969 34.300781 7.191406 C 34.300781 7.191406 29.886719 7.957031 21.644531 18.246094 C 21.644531 18.246094 16.34375 24.953125 16.34375 30.171875 C 16.34375 31.953125 16.636719 34.203125 19.875 34.203125 C 20.613281 34.203125 21.496094 33.90625 22.820312 33.140625 C 22.820312 33.140625 29.152344 29.28125 32.390625 26.140625 L 32.535156 25.84375 C 30.035156 30.914062 27.679688 35.246094 25.03125 39.101562 Z M 113.832031 3.671875 L 114.734375 2.636719 L 116.960938 3.285156 L 117.796875 2.675781 L 118.160156 0.515625 L 119.5 0 L 121.035156 1.691406 L 122.089844 1.707031 L 123.613281 0 L 124.988281 0.378906 L 125.324219 2.617188 L 126.269531 3.226562 L 128.460938 2.65625 L 129.363281 3.6875 L 128.5 5.738281 L 128.894531 6.800781 L 131.085938 7.476562 L 131.273438 8.832031 L 129.363281 10.070312 L 129.246094 11.242188 L 130.679688 13.0625 L 130.105469 14.265625 L 127.828125 14.277344 L 127.148438 15.078125 L 127.394531 17.433594 L 126.230469 18.136719 L 124.363281 16.976562 L 123.273438 17.234375 L 122.238281 19.339844 L 120.878906 19.304688 L 119.941406 17.316406 L 118.890625 16.96875 L 117.007812 18.152344 L 115.78125 17.4375 L 116.011719 15.28125 L 115.34375 14.328125 L 113.109375 14.265625 L 112.492188 12.929688 L 113.914062 11.265625 L 113.769531 10.136719 L 111.902344 8.914062 L 112.140625 7.464844 L 114.230469 6.820312 L 114.710938 5.773438 L 113.828125 3.675781 Z M 127.472656 15.566406 L 128.496094 14.457031 L 130.511719 15.34375 L 131.566406 14.992188 L 132.449219 12.917969 L 133.90625 13.058594 L 134.503906 15.25 L 135.449219 15.789062 L 137.539062 15.207031 L 138.355469 16.40625 L 137.078125 18.210938 L 137.175781 19.25 L 138.984375 20.648438 L 138.535156 22.058594 L 136.324219 22.164062 L 135.542969 22.949219 L 135.636719 25.214844 L 134.292969 25.714844 L 132.824219 24.058594 L 131.890625 23.8125 L 130.054688 25.398438 L 128.820312 24.6875 L 129.183594 22.441406 L 128.664062 21.59375 L 126.425781 21.09375 L 126.203125 19.640625 L 128.101562 18.609375 L 128.46875 17.601562 Z M 132.59375 17.445312 C 133.617188 17.445312 134.449219 18.28125 134.449219 19.316406 C 134.449219 20.347656 133.617188 21.1875 132.59375 21.1875 C 131.566406 21.1875 130.734375 20.347656 130.734375 19.316406 C 130.734375 18.28125 131.566406 17.445312 132.59375 17.445312 Z M 121.589844 6.035156 C 123.582031 6.035156 125.191406 7.660156 125.191406 9.667969 C 125.191406 11.671875 123.578125 13.296875 121.589844 13.296875 C 119.601562 13.296875 117.988281 11.667969 117.988281 9.667969 C 117.988281 7.660156 119.601562 6.035156 121.589844 6.035156 Z M 77.34375 39.964844 L 77.34375 35.441406 L 78.65625 35.441406 C 78.847656 35.441406 78.996094 35.492188 79.105469 35.601562 C 79.214844 35.710938 79.269531 35.863281 79.269531 36.054688 L 79.269531 38.890625 C 79.269531 39.242188 79.195312 39.503906 79.035156 39.675781 C 78.863281 39.867188 78.585938 39.960938 78.203125 39.960938 L 77.34375 39.960938 Z M 77.890625 39.449219 L 78.203125 39.449219 C 78.398438 39.449219 78.535156 39.410156 78.609375 39.328125 C 78.6875 39.246094 78.722656 39.097656 78.722656 38.894531 L 78.722656 36.082031 C 78.722656 36 78.683594 35.960938 78.597656 35.960938 L 77.890625 35.960938 Z M 76.847656 39.964844 L 75.203125 39.964844 L 75.203125 35.441406 L 76.847656 35.441406 L 76.847656 35.960938 L 75.75 35.960938 L 75.75 37.445312 L 76.847656 37.445312 L 76.847656 37.960938 L 75.75 37.960938 L 75.75 39.449219 L 76.847656 39.449219 Z M 73.15625 35.441406 L 73.820312 37.703125 L 74.058594 38.660156 L 74.023438 37.703125 L 74.023438 35.441406 L 74.542969 35.441406 L 74.542969 39.964844 L 74.027344 39.964844 L 73.367188 37.703125 L 73.128906 36.742188 L 73.164062 37.703125 L 73.164062 39.964844 L 72.640625 39.964844 L 72.640625 35.441406 Z M 71.433594 39.964844 L 71.433594 35.441406 L 71.984375 35.441406 L 71.984375 39.964844 Z M 70.976562 37.960938 L 69.878906 37.960938 L 69.878906 39.964844 L 69.332031 39.964844 L 69.332031 35.441406 L 70.976562 35.441406 L 70.976562 35.960938 L 69.878906 35.960938 L 69.878906 37.445312 L 70.976562 37.445312 Z M 68.835938 39.964844 L 67.1875 39.964844 L 67.1875 35.441406 L 68.835938 35.441406 L 68.835938 35.960938 L 67.730469 35.960938 L 67.730469 37.445312 L 68.835938 37.445312 L 68.835938 37.960938 L 67.730469 37.960938 L 67.730469 39.449219 L 68.835938 39.449219 Z M 64.601562 39.964844 L 64.601562 35.441406 L 65.914062 35.441406 C 66.105469 35.441406 66.253906 35.492188 66.363281 35.601562 C 66.46875 35.710938 66.527344 35.863281 66.527344 36.054688 L 66.527344 38.890625 C 66.527344 39.242188 66.449219 39.503906 66.292969 39.675781 C 66.121094 39.867188 65.84375 39.960938 65.460938 39.960938 L 64.601562 39.960938 Z M 65.148438 39.449219 L 65.460938 39.449219 C 65.65625 39.449219 65.792969 39.410156 65.867188 39.328125 C 65.941406 39.246094 65.980469 39.097656 65.980469 38.894531 L 65.980469 36.082031 C 65.980469 36 65.9375 35.960938 65.855469 35.960938 L 65.144531 35.960938 L 65.144531 39.449219 Z M 64.105469 39.964844 L 62.460938 39.964844 L 62.460938 35.441406 L 64.105469 35.441406 L 64.105469 35.960938 L 63.003906 35.960938 L 63.003906 37.445312 L 64.105469 37.445312 L 64.105469 37.960938 L 63.003906 37.960938 L 63.003906 39.449219 L 64.105469 39.449219 Z M 60.421875 37.445312 L 60.734375 37.445312 C 60.929688 37.445312 61.0625 37.402344 61.140625 37.320312 C 61.214844 37.238281 61.253906 37.097656 61.253906 36.886719 L 61.253906 36.082031 C 61.253906 35.996094 61.214844 35.957031 61.132812 35.957031 L 60.421875 35.957031 Z M 61.1875 35.441406 C 61.378906 35.441406 61.527344 35.492188 61.636719 35.601562 C 61.742188 35.710938 61.800781 35.863281 61.800781 36.054688 L 61.800781 36.820312 C 61.800781 37.070312 61.761719 37.261719 61.683594 37.398438 C 61.597656 37.542969 61.464844 37.644531 61.277344 37.699219 C 61.464844 37.757812 61.597656 37.859375 61.683594 38 C 61.761719 38.136719 61.800781 38.332031 61.800781 38.578125 L 61.800781 39.960938 L 61.253906 39.960938 L 61.253906 38.515625 C 61.253906 38.308594 61.214844 38.160156 61.140625 38.082031 C 61.0625 38 60.929688 37.960938 60.734375 37.960938 L 60.421875 37.960938 L 60.421875 39.960938 L 59.875 39.960938 L 59.875 35.4375 L 61.1875 35.4375 Z M 57.945312 39.964844 L 57.089844 39.964844 C 56.703125 39.964844 56.425781 39.871094 56.253906 39.679688 C 56.097656 39.503906 56.019531 39.246094 56.019531 38.894531 L 56.019531 36.054688 C 56.019531 35.863281 56.074219 35.714844 56.1875 35.605469 C 56.292969 35.496094 56.445312 35.441406 56.632812 35.441406 L 57.332031 35.441406 C 57.527344 35.441406 57.675781 35.496094 57.78125 35.605469 C 57.890625 35.714844 57.945312 35.863281 57.945312 36.054688 L 57.945312 36.929688 L 57.398438 36.929688 L 57.398438 36.082031 C 57.398438 36 57.359375 35.960938 57.277344 35.960938 L 56.691406 35.960938 C 56.609375 35.960938 56.570312 36 56.570312 36.082031 L 56.570312 38.894531 C 56.570312 39.101562 56.609375 39.246094 56.683594 39.328125 C 56.757812 39.410156 56.890625 39.449219 57.089844 39.449219 L 57.402344 39.449219 L 57.402344 37.960938 L 57.019531 37.960938 L 57.019531 37.445312 L 57.949219 37.445312 L 57.949219 39.964844 Z M 53.976562 35.441406 L 54.640625 37.703125 L 54.878906 38.660156 L 54.84375 37.703125 L 54.84375 35.441406 L 55.367188 35.441406 L 55.367188 39.964844 L 54.851562 39.964844 L 54.191406 37.703125 L 53.953125 36.742188 L 53.984375 37.703125 L 53.984375 39.964844 L 53.464844 39.964844 L 53.464844 35.441406 Z M 52.257812 39.964844 L 52.257812 35.441406 L 52.804688 35.441406 L 52.804688 39.964844 Z M 50.21875 37.445312 L 50.53125 37.445312 C 50.730469 37.445312 50.863281 37.402344 50.9375 37.320312 C 51.015625 37.238281 51.054688 37.097656 51.054688 36.886719 L 51.054688 36.082031 C 51.054688 35.996094 51.011719 35.957031 50.929688 35.957031 L 50.21875 35.957031 Z M 50.988281 35.441406 C 51.179688 35.441406 51.328125 35.492188 51.433594 35.601562 C 51.542969 35.710938 51.601562 35.863281 51.601562 36.054688 L 51.601562 36.820312 C 51.601562 37.070312 51.558594 37.261719 51.480469 37.398438 C 51.398438 37.542969 51.261719 37.644531 51.078125 37.699219 C 51.261719 37.757812 51.398438 37.859375 51.480469 38 C 51.558594 38.136719 51.601562 38.332031 51.601562 38.578125 L 51.601562 39.960938 L 51.054688 39.960938 L 51.054688 38.515625 C 51.054688 38.308594 51.015625 38.160156 50.9375 38.082031 C 50.863281 38 50.730469 37.960938 50.53125 37.960938 L 50.21875 37.960938 L 50.21875 39.960938 L 49.675781 39.960938 L 49.675781 35.4375 L 50.988281 35.4375 Z M 49.179688 39.964844 L 47.53125 39.964844 L 47.53125 35.441406 L 49.179688 35.441406 L 49.179688 35.960938 L 48.078125 35.960938 L 48.078125 37.445312 L 49.179688 37.445312 L 49.179688 37.960938 L 48.078125 37.960938 L 48.078125 39.449219 L 49.179688 39.449219 Z M 47.035156 39.964844 L 45.386719 39.964844 L 45.386719 35.441406 L 47.035156 35.441406 L 47.035156 35.960938 L 45.933594 35.960938 L 45.933594 37.445312 L 47.035156 37.445312 L 47.035156 37.960938 L 45.933594 37.960938 L 45.933594 39.449219 L 47.035156 39.449219 Z M 43.339844 35.441406 L 44.003906 37.703125 L 44.242188 38.660156 L 44.210938 37.703125 L 44.210938 35.441406 L 44.730469 35.441406 L 44.730469 39.964844 L 44.214844 39.964844 L 43.554688 37.703125 L 43.316406 36.742188 L 43.347656 37.703125 L 43.347656 39.964844 L 42.828125 39.964844 L 42.828125 35.441406 L 43.34375 35.441406 Z M 41.621094 39.964844 L 41.621094 35.441406 L 42.171875 35.441406 L 42.171875 39.964844 Z M 40.964844 39.964844 L 40.109375 39.964844 C 39.722656 39.964844 39.449219 39.871094 39.273438 39.679688 C 39.121094 39.503906 39.042969 39.246094 39.042969 38.894531 L 39.042969 36.054688 C 39.042969 35.863281 39.097656 35.714844 39.207031 35.605469 C 39.3125 35.496094 39.464844 35.441406 39.652344 35.441406 L 40.355469 35.441406 C 40.546875 35.441406 40.695312 35.496094 40.800781 35.605469 C 40.910156 35.714844 40.964844 35.863281 40.964844 36.054688 L 40.964844 36.929688 L 40.421875 36.929688 L 40.421875 36.082031 C 40.421875 36 40.382812 35.960938 40.296875 35.960938 L 39.710938 35.960938 C 39.628906 35.960938 39.589844 36 39.589844 36.082031 L 39.589844 38.894531 C 39.589844 39.101562 39.628906 39.246094 39.703125 39.328125 C 39.777344 39.410156 39.914062 39.449219 40.109375 39.449219 L 40.421875 39.449219 L 40.421875 37.960938 L 40.035156 37.960938 L 40.035156 37.445312 L 40.964844 37.445312 Z M 36.996094 35.441406 L 37.660156 37.703125 L 37.894531 38.660156 L 37.863281 37.703125 L 37.863281 35.441406 L 38.382812 35.441406 L 38.382812 39.964844 L 37.867188 39.964844 L 37.210938 37.703125 L 36.96875 36.742188 L 37.003906 37.703125 L 37.003906 39.964844 L 36.484375 39.964844 L 36.484375 35.441406 Z M 35.984375 39.964844 L 34.335938 39.964844 L 34.335938 35.441406 L 35.984375 35.441406 L 35.984375 35.960938 L 34.886719 35.960938 L 34.886719 37.445312 L 35.984375 37.445312 L 35.984375 37.960938 L 34.886719 37.960938 L 34.886719 39.449219 L 35.984375 39.449219 Z M 57.671875 30.199219 L 53.558594 30.199219 L 53.558594 27.050781 L 57.21875 27.050781 L 57.21875 25.273438 L 53.558594 25.273438 L 53.558594 22.539062 L 57.4375 22.539062 L 57.4375 20.71875 L 51.402344 20.71875 L 51.402344 32.019531 L 57.667969 32.019531 L 57.667969 30.195312 Z M 125.160156 21.070312 C 124.632812 20.804688 123.820312 20.558594 122.753906 20.558594 C 120.335938 20.558594 118.890625 21.984375 118.890625 23.835938 C 118.890625 25.304688 119.941406 26.363281 121.632812 27.097656 C 122.871094 27.640625 123.414062 28.128906 123.414062 28.933594 C 123.414062 29.773438 122.785156 30.34375 121.589844 30.34375 C 120.6875 30.34375 119.753906 30.066406 119.171875 29.714844 L 118.75 31.535156 C 119.273438 31.859375 120.398438 32.167969 121.503906 32.167969 C 124.113281 32.167969 125.585938 30.730469 125.585938 28.757812 C 125.585938 27.277344 124.78125 26.230469 122.988281 25.421875 C 121.621094 24.792969 121.066406 24.421875 121.066406 23.613281 C 121.066406 22.984375 121.574219 22.367188 122.714844 22.367188 C 123.632812 22.367188 124.316406 22.644531 124.710938 22.851562 L 125.164062 21.074219 Z M 115.527344 26.640625 C 116.574219 26.230469 117.449219 25.21875 117.449219 23.835938 C 117.449219 20.808594 114.59375 20.628906 113.179688 20.628906 C 112.085938 20.628906 111.035156 20.734375 110.292969 20.867188 L 110.292969 32.023438 L 112.433594 32.023438 L 112.433594 27.4375 L 113.164062 27.4375 C 114.183594 27.4375 114.636719 27.890625 114.925781 29.347656 C 115.191406 30.714844 115.464844 31.699219 115.625 32.023438 L 117.84375 32.023438 C 117.621094 31.597656 117.332031 30.246094 117.011719 28.90625 C 116.75 27.757812 116.3125 26.996094 115.523438 26.6875 L 115.523438 26.640625 Z M 112.433594 25.816406 L 112.433594 22.378906 C 112.609375 22.320312 112.945312 22.289062 113.425781 22.289062 C 114.210938 22.289062 115.292969 22.566406 115.292969 24.023438 C 115.292969 25.097656 114.550781 25.816406 113.324219 25.816406 Z M 108.632812 30.199219 L 104.519531 30.199219 L 104.519531 27.050781 L 108.179688 27.050781 L 108.179688 25.273438 L 104.519531 25.273438 L 104.519531 22.539062 L 108.398438 22.539062 L 108.398438 20.71875 L 102.363281 20.71875 L 102.363281 32.019531 L 108.628906 32.019531 L 108.628906 30.195312 Z M 100.699219 30.199219 L 96.589844 30.199219 L 96.589844 27.050781 L 100.25 27.050781 L 100.25 25.273438 L 96.589844 25.273438 L 96.589844 22.539062 L 100.46875 22.539062 L 100.46875 20.71875 L 94.429688 20.71875 L 94.429688 32.019531 L 100.699219 32.019531 L 100.699219 30.195312 Z M 92.230469 20.71875 L 90.277344 20.71875 L 90.277344 24.109375 C 90.277344 25.949219 90.335938 27.550781 90.464844 28.992188 L 90.4375 28.992188 C 89.984375 27.816406 89.359375 26.433594 88.761719 25.300781 L 86.398438 20.71875 L 84.066406 20.71875 L 84.066406 32.019531 L 86.023438 32.019531 L 86.023438 28.550781 C 86.023438 26.535156 85.976562 24.945312 85.890625 23.550781 L 85.949219 23.550781 C 86.414062 24.789062 87.070312 26.183594 87.667969 27.34375 L 90.074219 32.019531 L 92.230469 32.019531 Z M 79.722656 32.019531 L 81.882812 32.019531 L 81.882812 20.71875 L 79.722656 20.71875 Z M 77.800781 25.714844 L 74.125 25.714844 L 74.125 27.433594 L 75.746094 27.433594 L 75.746094 30.195312 C 75.554688 30.28125 75.164062 30.355469 74.636719 30.355469 C 72.789062 30.355469 71.402344 29.035156 71.402344 26.417969 C 71.402344 23.683594 72.921875 22.449219 74.914062 22.449219 C 75.90625 22.449219 76.546875 22.628906 77.058594 22.859375 L 77.511719 21.070312 C 76.972656 20.804688 76.023438 20.601562 74.886719 20.601562 C 71.664062 20.601562 69.140625 22.644531 69.140625 26.464844 C 69.140625 28.257812 69.699219 29.800781 70.660156 30.753906 C 71.605469 31.695312 72.90625 32.136719 74.609375 32.136719 C 75.878906 32.136719 77.148438 31.828125 77.800781 31.578125 L 77.800781 25.710938 Z M 67.496094 20.71875 L 65.542969 20.71875 L 65.542969 24.109375 C 65.542969 25.949219 65.597656 27.550781 65.730469 28.992188 L 65.703125 28.992188 C 65.25 27.816406 64.625 26.433594 64.023438 25.300781 L 61.664062 20.71875 L 59.332031 20.71875 L 59.332031 32.019531 L 61.285156 32.019531 L 61.285156 28.550781 C 61.285156 26.535156 61.242188 24.945312 61.15625 23.550781 L 61.210938 23.550781 C 61.679688 24.789062 62.335938 26.183594 62.933594 27.34375 L 65.335938 32.019531 L 67.496094 32.019531 Z M 64.183594 9.710938 C 63.742188 12.824219 61.683594 15.941406 61.242188 16.980469 C 60.949219 17.722656 60.652344 19.652344 61.976562 19.652344 C 62.714844 19.652344 66.542969 18.023438 66.542969 11.195312 C 66.542969 8.226562 65.214844 6.890625 63.449219 6.890625 C 59.621094 6.890625 53.585938 12.828125 50.789062 15.796875 C 52.40625 13.273438 55.941406 9.414062 55.941406 7.632812 C 55.941406 7.1875 55.648438 7.039062 55.207031 6.890625 C 50.347656 6 45.195312 17.429688 40.042969 28.5625 C 39.304688 30.046875 39.304688 31.378906 39.304688 32.273438 C 39.304688 33.460938 39.601562 34.203125 40.042969 34.203125 C 41.070312 34.203125 41.367188 32.421875 43.578125 28.710938 C 47.992188 21.140625 54.324219 13.570312 61.832031 9.414062 C 62.566406 8.96875 64.183594 8.523438 64.183594 9.710938 Z M 8.097656 51.121094 C 5.597656 51.121094 2.0625 49.785156 2.0625 46.371094 C 2.0625 41.027344 10.75 39.695312 15.605469 39.695312 C 18.402344 39.695312 21.050781 40.289062 23.703125 40.585938 C 19.875 46.074219 14.578125 51.121094 8.097656 51.121094 Z M 24.144531 29.894531 C 21.496094 31.527344 20.316406 31.972656 19.730469 31.972656 C 19.285156 31.972656 19.285156 31.230469 19.285156 30.9375 C 19.285156 26.628906 25.472656 20.097656 25.472656 20.097656 C 27.238281 18.320312 33.859375 10.449219 36.363281 10.449219 C 37.984375 10.597656 37.835938 13.867188 37.835938 14.753906 C 34.300781 24.105469 24.144531 29.894531 24.144531 29.894531 Z M 24.144531 29.894531 "/>
</g>
</svg>
