<?xml version="1.0" encoding="UTF-8"?>
<!DOCTYPE svg PUBLIC "-//W3C//DTD SVG 1.1//EN" "http://www.w3.org/Graphics/SVG/1.1/DTD/svg11.dtd">
<!-- Creator: CorelDRAW 2020 (64-Bit Evaluation Version) -->
<svg xmlns="http://www.w3.org/2000/svg" xml:space="preserve" width="68.5222mm" height="25.9406mm" version="1.1" style="shape-rendering:geometricPrecision; text-rendering:geometricPrecision; image-rendering:optimizeQuality; fill-rule:evenodd; clip-rule:evenodd"
viewBox="0 0 719.41 272.35"
 xmlns:xlink="http://www.w3.org/1999/xlink"
 xmlns:xodm="http://www.corel.com/coreldraw/odm/2003">
 <defs>
  <style type="text/css">
   <![CDATA[
    .fil0 {fill:url(#id0)}
   ]]>
  </style>
  <linearGradient id="id0" gradientUnits="userSpaceOnUse" x1="44.06" y1="143.39" x2="738.7" y2="144.75">
   <stop offset="0" style="stop-opacity:1; stop-color:#0B78AD"/>
   <stop offset="0.309804" style="stop-opacity:1; stop-color:#3D64AD"/>
   <stop offset="0.54902" style="stop-opacity:1; stop-color:#7F3D94"/>
   <stop offset="0.788235" style="stop-opacity:1; stop-color:#A73575"/>
   <stop offset="1" style="stop-opacity:1; stop-color:#BE3662"/>
  </linearGradient>
 </defs>
 <g id="Layer_x0020_1">
  <metadata id="CorelCorpID_0Corel-Layer"/>
  <path class="fil0" d="M129.54 200.72c-15.24,-3.05 -31.24,-5.33 -46.48,-5.33 -30.48,0 -83.06,5.33 -83.06,43.43 0,22.1 28.19,33.53 43.43,33.53 40.39,0 70.86,-23.62 99.06,-59.43 57.15,12.19 100.58,20.57 145.54,20.57 48.77,0 101.35,-6.1 166.12,-33.53 9.14,-3.81 35.05,-14.48 35.05,-28.19 0,-3.05 -2.29,-5.33 -5.33,-5.33 -17.53,0 -21.33,20.57 -35.81,26.67 -61.72,26.67 -111.25,32.01 -155.45,32.01 -44.2,0 -87.63,-9.91 -144.78,-20.57 22.86,-32.77 57.15,-105.92 95.25,-156.97 0.76,-0.76 2.29,-4.57 2.29,-7.62 0,-2.29 -0.76,-4.57 -3.81,-4.57 -19.81,0 -29.72,17.53 -35.81,29.72 0,-2.29 0,-0.76 0,-3.05 0,-7.49 -1.52,-26.67 -20.57,-26.67 -2.29,0 -4.57,0.76 -7.62,1.52 0,0 -22.86,3.94 -65.53,56.77 0,0 -27.43,34.42 -27.43,61.21 0,9.14 1.52,20.7 18.29,20.7 3.81,0 8.38,-1.52 15.24,-5.46 0,0 32.77,-19.81 49.53,-35.94l0.76 -1.52c-12.95,26.03 -25.15,48.26 -38.86,68.07zm459.69 -181.87l4.66 -5.31 11.52 3.31 4.33 -3.11 1.88 -11.09 6.94 -2.65 7.94 8.68 5.48 0.09 7.87 -8.77 7.12 1.94 1.75 11.5 4.87 3.13 11.37 -2.94 4.67 5.29 -4.48 10.54 2.05 5.45 11.33 3.46 0.98 6.97 -9.89 6.35 -0.61 6.02 7.43 9.35 -2.99 6.17 -11.78 0.07 -3.52 4.1 1.28 12.09 -6.03 3.61 -9.67 -5.96 -5.63 1.34 -5.37 10.79 -7.04 -0.16 -4.85 -10.22 -5.42 -1.79 -9.75 6.09 -6.36 -3.68 1.2 -11.07 -3.46 -4.88 -11.56 -0.32 -3.2 -6.86 7.35 -8.54 -0.75 -5.8 -9.66 -6.28 1.24 -7.44 10.82 -3.31 2.49 -5.37 -4.57 -10.78zm70.6 61.05l5.3 -5.69 10.44 4.57 5.46 -1.82 4.57 -10.64 7.54 0.72 3.09 11.25 4.89 2.77 10.82 -3 4.22 6.15 -6.6 9.27 0.49 5.35 9.36 7.17 -2.33 7.25 -11.44 0.53 -4.04 4.03 0.5 11.62 -6.97 2.58 -7.59 -8.5 -4.85 -1.27 -9.49 8.14 -6.4 -3.65 1.88 -11.53 -2.69 -4.34 -11.58 -2.57 -1.15 -7.45 9.83 -5.31 1.9 -5.17 -5.15 -10.45zm26.5 9.65c5.31,0 9.61,4.3 9.61,9.61 0,5.31 -4.3,9.61 -9.61,9.61 -5.31,0 -9.61,-4.3 -9.61,-9.61 0,-5.31 4.3,-9.61 9.61,-9.61zm-56.95 -58.57c10.3,0 18.64,8.35 18.64,18.64 0,10.3 -8.35,18.64 -18.64,18.64 -10.3,0 -18.64,-8.35 -18.64,-18.64 0,-10.29 8.35,-18.64 18.64,-18.64zm-229.02 174.18l0 -23.22 6.79 0c0.99,0 1.76,0.27 2.32,0.83 0.56,0.56 0.85,1.34 0.85,2.32l0 14.56c0,1.81 -0.4,3.16 -1.21,4.04 -0.89,0.97 -2.32,1.46 -4.31,1.46l-4.44 0zm2.82 -2.64l1.62 0c1.01,0 1.71,-0.21 2.1,-0.63 0.4,-0.42 0.6,-1.17 0.6,-2.23l0 -14.43c0,-0.42 -0.22,-0.63 -0.66,-0.63l-3.66 0 0 17.92zm-5.39 2.64l-8.53 0 0 -23.22 8.53 0 0 2.66 -5.7 0 0 7.62 5.7 0 0 2.66 -5.7 0 0 7.64 5.7 0 0 2.64zm-19.12 -23.22l3.44 11.61 1.23 4.92 -0.18 -4.92 0 -11.61 2.7 0 0 23.22 -2.67 0 -3.42 -11.61 -1.23 -4.92 0.17 4.92 0 11.61 -2.7 0 0 -23.22 2.66 0zm-8.9 23.22l0 -23.22 2.83 0 0 23.22 -2.83 0zm-2.37 -10.28l-5.7 0 0 10.28 -2.83 0 0 -23.22 8.53 0 0 2.66 -5.7 0 0 7.62 5.7 0 0 2.66zm-11.1 10.28l-8.53 0 0 -23.22 8.53 0 0 2.66 -5.7 0 0 7.62 5.7 0 0 2.66 -5.7 0 0 7.64 5.7 0 0 2.64zm-21.9 0l0 -23.22 6.79 0c0.99,0 1.76,0.27 2.32,0.83 0.56,0.56 0.85,1.34 0.85,2.32l0 14.56c0,1.81 -0.4,3.16 -1.21,4.04 -0.89,0.97 -2.32,1.46 -4.31,1.46l-4.44 0zm2.82 -2.64l1.62 0c1.01,0 1.71,-0.21 2.1,-0.63 0.4,-0.42 0.6,-1.17 0.6,-2.23l0 -14.43c0,-0.42 -0.22,-0.63 -0.66,-0.63l-3.67 0 0 17.92zm-5.39 2.64l-8.53 0 0 -23.22 8.53 0 0 2.66 -5.7 0 0 7.62 5.7 0 0 2.66 -5.7 0 0 7.64 5.7 0 0 2.64zm-19.08 -12.94l1.62 0c1.01,0 1.71,-0.21 2.1,-0.63 0.4,-0.41 0.6,-1.15 0.6,-2.22l0 -4.15c0,-0.42 -0.21,-0.63 -0.64,-0.63l-3.68 0 0 7.62zm3.97 -10.28c1,0 1.77,0.27 2.32,0.83 0.56,0.56 0.85,1.34 0.85,2.32l0 3.94c0,1.27 -0.2,2.26 -0.61,2.96 -0.43,0.74 -1.13,1.26 -2.09,1.55 0.96,0.29 1.66,0.81 2.09,1.54 0.41,0.7 0.61,1.69 0.61,2.97l0 7.1 -2.82 0 0 -7.43c0,-1.07 -0.2,-1.82 -0.6,-2.22 -0.39,-0.42 -1.09,-0.63 -2.1,-0.63l-1.62 0 0 10.28 -2.82 0 0 -23.22 6.79 0zm-16.78 23.22l-4.44 0c-1.99,0 -3.43,-0.49 -4.31,-1.46 -0.81,-0.89 -1.21,-2.23 -1.21,-4.04l0 -14.56c0,-0.99 0.28,-1.76 0.85,-2.32 0.56,-0.56 1.34,-0.83 2.32,-0.83l3.62 0c1,0 1.77,0.27 2.32,0.83 0.56,0.56 0.85,1.34 0.85,2.32l0 4.47 -2.82 0 0 -4.34c0,-0.42 -0.21,-0.63 -0.64,-0.63l-3.03 0c-0.43,0 -0.64,0.21 -0.64,0.63l0 14.43c0,1.07 0.2,1.82 0.59,2.23 0.39,0.42 1.09,0.63 2.11,0.63l1.62 0 0 -7.64 -1.99 0 0 -2.66 4.81 0 0 12.94zm-20.55 -23.22l3.44 11.61 1.23 4.92 -0.17 -4.92 0 -11.61 2.7 0 0 23.22 -2.67 0 -3.42 -11.61 -1.23 -4.92 0.17 4.92 0 11.61 -2.7 0 0 -23.22 2.66 0zm-8.89 23.22l0 -23.22 2.83 0 0 23.22 -2.83 0zm-10.55 -12.94l1.62 0c1.01,0 1.71,-0.21 2.1,-0.63 0.4,-0.41 0.6,-1.15 0.6,-2.22l0 -4.15c0,-0.42 -0.21,-0.63 -0.64,-0.63l-3.68 0 0 7.62zm3.97 -10.28c1,0 1.77,0.27 2.32,0.83 0.56,0.56 0.85,1.34 0.85,2.32l0 3.94c0,1.27 -0.2,2.26 -0.61,2.96 -0.43,0.74 -1.13,1.26 -2.09,1.55 0.96,0.29 1.66,0.81 2.09,1.54 0.41,0.7 0.61,1.69 0.61,2.97l0 7.1 -2.82 0 0 -7.43c0,-1.07 -0.2,-1.82 -0.6,-2.22 -0.39,-0.42 -1.09,-0.63 -2.1,-0.63l-1.62 0 0 10.28 -2.82 0 0 -23.22 6.79 0zm-9.36 23.22l-8.53 0 0 -23.22 8.53 0 0 2.66 -5.7 0 0 7.62 5.7 0 0 2.66 -5.7 0 0 7.64 5.7 0 0 2.64zm-11.1 0l-8.53 0 0 -23.22 8.53 0 0 2.66 -5.7 0 0 7.62 5.7 0 0 2.66 -5.7 0 0 7.64 5.7 0 0 2.64zm-19.12 -23.22l3.44 11.61 1.23 4.92 -0.17 -4.92 0 -11.61 2.7 0 0 23.22 -2.67 0 -3.42 -11.61 -1.23 -4.92 0.17 4.92 0 11.61 -2.7 0 0 -23.22 2.66 0zm-8.89 23.22l0 -23.22 2.83 0 0 23.22 -2.83 0zm-3.4 0l-4.44 0c-1.99,0 -3.42,-0.49 -4.31,-1.46 -0.81,-0.89 -1.21,-2.23 -1.21,-4.04l0 -14.56c0,-0.99 0.28,-1.76 0.85,-2.32 0.56,-0.56 1.34,-0.83 2.32,-0.83l3.62 0c1,0 1.77,0.27 2.32,0.83 0.56,0.56 0.85,1.34 0.85,2.32l0 4.47 -2.82 0 0 -4.34c0,-0.42 -0.21,-0.63 -0.64,-0.63l-3.03 0c-0.43,0 -0.64,0.21 -0.64,0.63l0 14.43c0,1.07 0.2,1.82 0.59,2.23 0.39,0.42 1.09,0.63 2.1,0.63l1.62 0 0 -7.64 -1.99 0 0 -2.66 4.81 0 0 12.94zm-20.55 -23.22l3.43 11.61 1.23 4.92 -0.17 -4.92 0 -11.61 2.7 0 0 23.22 -2.67 0 -3.42 -11.61 -1.23 -4.92 0.18 4.92 0 11.61 -2.7 0 0 -23.22 2.66 0zm-5.23 23.22l-8.53 0 0 -23.22 8.53 0 0 2.66 -5.7 0 0 7.62 5.7 0 0 2.66 -5.7 0 0 7.64 5.7 0 0 2.64zm112.25 -50.14l-21.28 0 0 -16.15 18.94 0 0 -9.13 -18.94 0 0 -14.03 20.07 0 0 -9.36 -31.24 0 0 58.02 32.44 0 0 -9.36zm349.34 -46.85c-2.72,-1.36 -6.94,-2.64 -12.45,-2.64 -12.52,0 -19.99,7.32 -19.99,16.83 0,7.54 5.43,12.98 14.19,16.75 6.41,2.79 9.21,5.28 9.21,9.43 0,4.3 -3.25,7.24 -9.43,7.24 -4.68,0 -9.51,-1.43 -12.53,-3.24l-2.19 9.36c2.72,1.66 8.53,3.24 14.26,3.24 13.51,0 21.13,-7.39 21.13,-17.5 0,-7.62 -4.15,-12.98 -13.43,-17.13 -7.09,-3.24 -9.96,-5.13 -9.96,-9.28 0,-3.24 2.64,-6.41 8.53,-6.41 4.75,0 8.3,1.43 10.34,2.49l2.34 -9.13zm-49.87 28.6c5.43,-2.11 9.96,-7.32 9.96,-14.41 0,-15.54 -14.79,-16.45 -22.11,-16.45 -5.66,0 -11.09,0.53 -14.94,1.21l0 57.27 11.09 0 0 -23.54 3.77 0c5.28,0 7.62,2.34 9.13,9.81 1.36,7.02 2.79,12.07 3.62,13.73l11.47 0c-1.13,-2.19 -2.64,-9.13 -4.3,-16 -1.36,-5.88 -3.62,-9.81 -7.7,-11.39l0 -0.23zm-16 -4.23l0 -17.66c0.91,-0.3 2.64,-0.45 5.13,-0.45 4.07,0 9.66,1.43 9.66,8.9 0,5.51 -3.85,9.21 -10.19,9.21l-4.6 0zm-19.69 22.48l-21.28 0 0 -16.15 18.94 0 0 -9.13 -18.94 0 0 -14.03 20.07 0 0 -9.36 -31.24 0 0 58.02 32.44 0 0 -9.36zm-41.05 0l-21.28 0 0 -16.15 18.94 0 0 -9.13 -18.94 0 0 -14.03 20.07 0 0 -9.36 -31.24 0 0 58.02 32.44 0 0 -9.36zm-43.84 -48.67l-10.11 0 0 17.43c0,9.43 0.3,17.66 0.98,25.05l-0.15 0c-2.34,-6.04 -5.58,-13.13 -8.68,-18.94l-12.22 -23.54 -12.07 0 0 58.02 10.11 0 0 -17.81c0,-10.34 -0.23,-18.49 -0.68,-25.65l0.3 0c2.41,6.34 5.81,13.51 8.9,19.47l12.45 23.99 11.17 0 0 -58.02zm-64.74 58.02l11.17 0 0 -58.02 -11.17 0 0 58.02zm-9.96 -32.37l-19.01 0 0 8.83 8.38 0 0 14.18c-0.98,0.45 -3.02,0.83 -5.73,0.83 -9.58,0 -16.75,-6.79 -16.75,-20.22 0,-14.03 7.85,-20.37 18.18,-20.37 5.13,0 8.45,0.91 11.09,2.11l2.34 -9.2c-2.79,-1.36 -7.7,-2.41 -13.58,-2.41 -16.68,0 -29.73,10.49 -29.73,30.1 0,9.21 2.87,17.13 7.85,22.03 4.9,4.83 11.62,7.09 20.45,7.09 6.57,0 13.13,-1.58 16.52,-2.87l0 -30.11zm-53.34 -25.65l-10.11 0 0 17.43c0,9.43 0.3,17.66 0.98,25.05l-0.15 0c-2.34,-6.04 -5.58,-13.13 -8.68,-18.94l-12.22 -23.54 -12.07 0 0 58.02 10.11 0 0 -17.81c0,-10.34 -0.23,-18.49 -0.68,-25.65l0.3 0c2.41,6.34 5.81,13.51 8.9,19.47l12.45 23.99 11.17 0 0 -58.02zm-17.13 -56.51c-2.29,16 -12.95,32 -15.24,37.34 -1.52,3.81 -3.05,13.72 3.81,13.72 3.81,0 23.62,-8.38 23.62,-43.43 0,-15.24 -6.86,-22.1 -16,-22.1 -19.81,0 -51.05,30.48 -65.53,45.72 8.38,-12.95 26.67,-32.77 26.67,-41.91 0,-2.29 -1.52,-3.05 -3.81,-3.81 -25.15,-4.57 -51.82,54.1 -78.49,111.25 -3.81,7.62 -3.81,14.48 -3.81,19.05 0,6.1 1.52,9.91 3.81,9.91 5.33,0 6.86,-9.14 18.29,-28.19 22.86,-38.86 55.63,-77.72 94.49,-99.06 3.81,-2.29 12.19,-4.57 12.19,1.52zm-290.32 212.6c-12.95,0 -31.24,-6.86 -31.24,-24.38 0,-27.43 44.96,-34.29 70.1,-34.29 14.48,0 28.19,3.05 41.91,4.57 -19.81,28.19 -47.24,54.1 -80.77,54.1l0 0zm83.06 -108.97c-13.71,8.38 -19.81,10.67 -22.86,10.67 -2.29,0 -2.29,-3.81 -2.29,-5.33 0,-22.1 32.01,-55.63 32.01,-55.63 9.14,-9.14 43.43,-49.53 56.39,-49.53 8.38,0.76 7.62,17.53 7.62,22.1 -18.29,48.01 -70.87,77.72 -70.87,77.72z"/>
 </g>
</svg>
