<?xml version="1.0" encoding="UTF-8"?>
<svg xmlns="http://www.w3.org/2000/svg" xmlns:xlink="http://www.w3.org/1999/xlink" width="100pt" height="100pt" viewBox="0 0 100 100" version="1.1">
<g id="surface1">
<path style=" stroke:none;fill-rule:nonzero;fill:rgb(76.862745%,63.529412%,98.823529%);fill-opacity:1;" d="M 95.3125 27.246094 L 28.90625 27.246094 C 26.316406 27.246094 24.21875 29.34375 24.21875 31.933594 L 24.21875 80.175781 C 24.21875 82.765625 26.316406 84.863281 28.90625 84.863281 L 52.609375 84.863281 C 53.203125 84.863281 53.742188 85.199219 54.007812 85.726562 L 60.710938 99.136719 C 60.976562 99.667969 61.515625 100.003906 62.109375 100.003906 C 62.703125 100.003906 63.242188 99.667969 63.507812 99.136719 L 70.210938 85.726562 C 70.476562 85.199219 71.015625 84.863281 71.609375 84.863281 L 95.3125 84.863281 C 97.902344 84.863281 100 82.765625 100 80.175781 L 100 31.933594 C 100 29.34375 97.902344 27.246094 95.3125 27.246094 Z M 33.894531 49.6875 C 33.894531 44.882812 35.167969 41.5625 37.429688 39.375 C 39.1875 37.566406 41.558594 36.480469 44.074219 36.335938 C 44.636719 36.257812 45.207031 36.433594 45.628906 36.8125 C 46.050781 37.195312 46.285156 37.746094 46.261719 38.316406 C 46.21875 39.273438 45.511719 40.070312 44.5625 40.222656 C 41.582031 40.828125 39.519531 43.558594 39.757812 46.585938 C 42.035156 47.039062 43.707031 49 43.785156 51.320312 C 43.730469 51.476562 44.144531 56.625 38.980469 56.625 C 35.867188 56.625 33.886719 54.21875 33.886719 50.402344 Z M 56.863281 75.78125 L 35.457031 75.78125 C 34.59375 75.78125 33.894531 75.082031 33.894531 74.21875 C 33.894531 73.355469 34.59375 72.65625 35.457031 72.65625 L 56.863281 72.65625 C 57.726562 72.65625 58.425781 73.355469 58.425781 74.21875 C 58.425781 75.082031 57.726562 75.78125 56.863281 75.78125 Z M 56.863281 66.699219 L 35.457031 66.699219 C 34.59375 66.699219 33.894531 66 33.894531 65.136719 C 33.894531 64.273438 34.59375 63.574219 35.457031 63.574219 L 56.863281 63.574219 C 57.726562 63.574219 58.425781 64.273438 58.425781 65.136719 C 58.425781 66 57.726562 66.699219 56.863281 66.699219 Z M 56.160156 46.578125 C 58.441406 47.03125 60.109375 48.992188 60.191406 51.3125 C 60.132812 51.46875 60.546875 56.617188 55.382812 56.617188 C 52.273438 56.617188 50.292969 54.210938 50.292969 50.394531 L 50.292969 49.6875 C 50.292969 44.882812 51.566406 41.5625 53.757812 39.375 C 55.53125 37.589844 57.890625 36.507812 60.402344 36.335938 C 60.964844 36.257812 61.535156 36.433594 61.957031 36.8125 C 62.378906 37.195312 62.613281 37.746094 62.589844 38.316406 C 62.550781 39.25 61.878906 40.039062 60.960938 40.222656 C 57.988281 40.828125 55.929688 43.554688 56.164062 46.578125 Z M 73.921875 62.421875 C 73.921875 71.34375 68.765625 75.78125 63.8125 75.78125 C 63.242188 75.863281 62.664062 75.691406 62.230469 75.3125 C 61.792969 74.929688 61.546875 74.378906 61.554688 73.800781 C 61.59375 72.84375 62.300781 72.046875 63.246094 71.894531 C 66.207031 71.308594 68.265625 68.609375 68.054688 65.601562 C 65.777344 65.097656 64.125 63.125 64.023438 60.796875 L 64.023438 60.226562 C 63.980469 58.945312 64.476562 57.707031 65.390625 56.804688 C 66.304688 55.90625 67.554688 55.429688 68.835938 55.492188 C 74.4375 55.492188 73.875 62.261719 73.921875 62.421875 Z M 90.328125 62.421875 C 90.328125 71.402344 84.957031 75.78125 80.148438 75.78125 C 79.585938 75.859375 79.015625 75.683594 78.589844 75.304688 C 78.167969 74.921875 77.9375 74.371094 77.960938 73.800781 C 78.003906 72.84375 78.710938 72.046875 79.660156 71.894531 C 82.617188 71.304688 84.675781 68.609375 84.464844 65.601562 C 82.1875 65.097656 80.535156 63.125 80.4375 60.796875 L 80.4375 60.226562 C 80.390625 58.945312 80.886719 57.707031 81.800781 56.804688 C 82.714844 55.90625 83.960938 55.429688 85.242188 55.492188 C 90.835938 55.492188 90.28125 62.261719 90.324219 62.421875 Z M 88.765625 48.535156 L 67.359375 48.535156 C 66.496094 48.535156 65.796875 47.835938 65.796875 46.972656 C 65.796875 46.109375 66.496094 45.410156 67.359375 45.410156 L 88.765625 45.410156 C 89.628906 45.410156 90.328125 46.109375 90.328125 46.972656 C 90.328125 47.835938 89.628906 48.535156 88.765625 48.535156 Z M 88.765625 39.453125 L 67.359375 39.453125 C 66.496094 39.453125 65.796875 38.753906 65.796875 37.890625 C 65.796875 37.027344 66.496094 36.328125 67.359375 36.328125 L 88.765625 36.328125 C 89.628906 36.328125 90.328125 37.027344 90.328125 37.890625 C 90.328125 38.753906 89.628906 39.453125 88.765625 39.453125 Z M 88.765625 39.453125 "/>
<path style=" stroke:none;fill-rule:nonzero;fill:rgb(8.235294%,10.196078%,41.568627%);fill-opacity:1;" d="M 51.105469 12.566406 L 38.996094 0.457031 C 38.703125 0.167969 38.304688 0.00390625 37.890625 0 L 4.6875 0 C 2.097656 0 0 2.097656 0 4.6875 L 0 71.09375 C 0 73.683594 2.097656 75.78125 4.6875 75.78125 L 46.875 75.78125 C 49.464844 75.78125 51.5625 73.683594 51.5625 71.09375 L 51.5625 13.671875 C 51.558594 13.257812 51.394531 12.859375 51.105469 12.566406 Z M 39.453125 5.335938 L 46.226562 12.109375 L 39.453125 12.109375 Z M 48.4375 71.09375 C 48.4375 71.957031 47.738281 72.65625 46.875 72.65625 L 4.6875 72.65625 C 3.824219 72.65625 3.125 71.957031 3.125 71.09375 L 3.125 4.6875 C 3.125 3.824219 3.824219 3.125 4.6875 3.125 L 36.328125 3.125 L 36.328125 13.671875 C 36.328125 14.535156 37.027344 15.234375 37.890625 15.234375 L 48.4375 15.234375 Z M 48.4375 71.09375 "/>
<path style=" stroke:none;fill-rule:nonzero;fill:rgb(8.235294%,10.196078%,41.568627%);fill-opacity:1;" d="M 9.375 12.207031 L 30.078125 12.207031 C 30.941406 12.207031 31.640625 11.507812 31.640625 10.644531 C 31.640625 9.78125 30.941406 9.082031 30.078125 9.082031 L 9.375 9.082031 C 8.511719 9.082031 7.8125 9.78125 7.8125 10.644531 C 7.8125 11.507812 8.511719 12.207031 9.375 12.207031 Z M 9.375 12.207031 "/>
<path style=" stroke:none;fill-rule:nonzero;fill:rgb(8.235294%,10.196078%,41.568627%);fill-opacity:1;" d="M 9.375 21.289062 L 30.078125 21.289062 C 30.941406 21.289062 31.640625 20.589844 31.640625 19.726562 C 31.640625 18.863281 30.941406 18.164062 30.078125 18.164062 L 9.375 18.164062 C 8.511719 18.164062 7.8125 18.863281 7.8125 19.726562 C 7.8125 20.589844 8.511719 21.289062 9.375 21.289062 Z M 9.375 21.289062 "/>
<path style=" stroke:none;fill-rule:nonzero;fill:rgb(8.235294%,10.196078%,41.568627%);fill-opacity:1;" d="M 7.8125 28.808594 C 7.8125 29.671875 8.511719 30.371094 9.375 30.371094 L 42.1875 30.371094 C 43.050781 30.371094 43.75 29.671875 43.75 28.808594 C 43.75 27.945312 43.050781 27.246094 42.1875 27.246094 L 9.375 27.246094 C 8.511719 27.246094 7.8125 27.945312 7.8125 28.808594 Z M 7.8125 28.808594 "/>
<path style=" stroke:none;fill-rule:nonzero;fill:rgb(8.235294%,10.196078%,41.568627%);fill-opacity:1;" d="M 42.1875 36.328125 L 9.375 36.328125 C 8.511719 36.328125 7.8125 37.027344 7.8125 37.890625 C 7.8125 38.753906 8.511719 39.453125 9.375 39.453125 L 42.1875 39.453125 C 43.050781 39.453125 43.75 38.753906 43.75 37.890625 C 43.75 37.027344 43.050781 36.328125 42.1875 36.328125 Z M 42.1875 36.328125 "/>
<path style=" stroke:none;fill-rule:nonzero;fill:rgb(8.235294%,10.196078%,41.568627%);fill-opacity:1;" d="M 42.1875 45.410156 L 9.375 45.410156 C 8.511719 45.410156 7.8125 46.109375 7.8125 46.972656 C 7.8125 47.835938 8.511719 48.535156 9.375 48.535156 L 42.1875 48.535156 C 43.050781 48.535156 43.75 47.835938 43.75 46.972656 C 43.75 46.109375 43.050781 45.410156 42.1875 45.410156 Z M 42.1875 45.410156 "/>
<path style=" stroke:none;fill-rule:nonzero;fill:rgb(8.235294%,10.196078%,41.568627%);fill-opacity:1;" d="M 42.1875 54.492188 L 9.375 54.492188 C 8.511719 54.492188 7.8125 55.191406 7.8125 56.054688 L 7.8125 65.136719 C 7.8125 66 8.511719 66.699219 9.375 66.699219 L 42.1875 66.699219 C 43.050781 66.699219 43.75 66 43.75 65.136719 L 43.75 56.054688 C 43.75 55.191406 43.050781 54.492188 42.1875 54.492188 Z M 40.625 63.574219 L 10.9375 63.574219 L 10.9375 57.617188 L 40.625 57.617188 Z M 40.625 63.574219 "/>
</g>
</svg>
