<?xml version="1.0" encoding="UTF-8"?>
<!DOCTYPE svg PUBLIC "-//W3C//DTD SVG 1.1//EN" "http://www.w3.org/Graphics/SVG/1.1/DTD/svg11.dtd">
<!-- Creator: CorelDRAW 2020 (64-Bit Evaluation Version) -->
<svg xmlns="http://www.w3.org/2000/svg" xml:space="preserve" width="34px" height="80px" version="1.1" style="shape-rendering:geometricPrecision; text-rendering:geometricPrecision; image-rendering:optimizeQuality; fill-rule:evenodd; clip-rule:evenodd"
viewBox="0 0 34 79.21"
 xmlns:xlink="http://www.w3.org/1999/xlink"
 xmlns:xodm="http://www.corel.com/coreldraw/odm/2003">
 <defs>
  <style type="text/css">
   <![CDATA[
    .fil0 {fill:#0B78AD;fill-rule:nonzero}
   ]]>
  </style>
 </defs>
 <g id="Layer_x0020_1">
  <metadata id="CorelCorpID_0Corel-Layer"/>
  <g id="icons">
   <path class="fil0" d="M24.11 41.11c0,0.78 0.47,1.49 1.19,1.79 0.24,0.09 0.49,0.14 0.74,0.14 0.5,0 1,-0.19 1.37,-0.56l3.89 -3.9c1.74,-1.74 2.7,-4.05 2.7,-6.51 0,-1.06 -0.86,-1.93 -1.93,-1.93 -1.06,0 -1.93,0.87 -1.93,1.93 0,1.43 -0.55,2.77 -1.56,3.78l-0.99 0.99c-0.85,-4.72 -3.11,-9.06 -6.58,-12.53l-2.08 -2.08 0 -0.47c5.13,-0.91 9.04,-5.4 9.04,-10.79 0,-6.05 -4.92,-10.97 -10.97,-10.97 -6.05,0 -10.97,4.92 -10.97,10.97 0,5.39 3.91,9.88 9.04,10.79l0 0.47 -2.08 2.08c-3.47,3.47 -5.73,7.81 -6.58,12.53l-0.99 -0.99c-1.01,-1.01 -1.56,-2.35 -1.56,-3.78 0,-1.06 -0.87,-1.93 -1.93,-1.93 -1.07,0 -1.93,0.87 -1.93,1.93 0,2.46 0.96,4.77 2.7,6.51l3.89 3.9c0.37,0.37 0.87,0.56 1.37,0.56 0.25,0 0.5,-0.05 0.74,-0.14 0.72,-0.3 1.19,-1.01 1.19,-1.79 0,-4.99 1.84,-9.69 5.18,-13.36l0 18.62c-5.83,6.12 -9.04,14.11 -9.04,22.6l0 8.31c0,1.07 0.86,1.93 1.93,1.93 1.06,0 1.93,-0.86 1.93,-1.93l0 -8.31c0,-7.06 2.51,-13.74 7.11,-19.01 4.6,5.27 7.11,11.95 7.11,19.01l0 8.31c0,1.07 0.87,1.93 1.93,1.93 1.07,0 1.93,-0.86 1.93,-1.93l0 -8.31c0,-8.49 -3.21,-16.48 -9.04,-22.6l0 -18.62c3.34,3.67 5.18,8.37 5.18,13.36zm-14.22 -30.14c0,-3.92 3.19,-7.11 7.11,-7.11 3.92,0 7.11,3.19 7.11,7.11 0,3.92 -3.19,7.12 -7.11,7.12 -3.92,0 -7.11,-3.2 -7.11,-7.12z"/>
  </g>
 </g>
</svg>
