<?xml version="1.0" encoding="UTF-8"?>
<!DOCTYPE svg PUBLIC "-//W3C//DTD SVG 1.1//EN" "http://www.w3.org/Graphics/SVG/1.1/DTD/svg11.dtd">
<!-- Creator: CorelDRAW 2020 (64-Bit Evaluation Version) -->
<svg xmlns="http://www.w3.org/2000/svg" xml:space="preserve" width="75px" height="75px" version="1.1" style="shape-rendering:geometricPrecision; text-rendering:geometricPrecision; image-rendering:optimizeQuality; fill-rule:evenodd; clip-rule:evenodd"
viewBox="0 0 75 75"
 xmlns:xlink="http://www.w3.org/1999/xlink"
 xmlns:xodm="http://www.corel.com/coreldraw/odm/2003">
 <defs>
  <style type="text/css">
   <![CDATA[
    .fil0 {fill:#BE3662;fill-rule:nonzero}
   ]]>
  </style>
 </defs>
 <g id="Layer_x0020_1">
  <metadata id="CorelCorpID_0Corel-Layer"/>
  <g id="surface1">
   <path class="fil0" d="M73.37 71.74l-8.65 0 -21.52 -57.77c1.51,-1.48 2.45,-3.54 2.45,-5.82 0,-4.49 -3.65,-8.15 -8.15,-8.15 -4.5,0 -8.15,3.66 -8.15,8.15 0,2.28 0.94,4.34 2.45,5.82l-21.52 57.77 -8.65 0c-0.9,0 -1.63,0.73 -1.63,1.63 0,0.9 0.73,1.63 1.63,1.63l71.74 0c0.9,0 1.63,-0.73 1.63,-1.63 0,-0.9 -0.73,-1.63 -1.63,-1.63zm-16.99 -13.04l-17.25 0 0 -6.52 14.82 0 2.43 6.52zm-3.65 -9.79l-13.6 0 0 -6.52 11.17 0 2.43 6.52zm-3.64 -9.78l-9.96 0 0 -22.99c0.43,-0.09 0.84,-0.23 1.25,-0.39l8.71 23.38zm-13.22 32.61l-22.11 0 3.65 -9.78 18.46 0 0 9.78zm0 -13.04l-17.25 0 2.43 -6.52 14.82 0 0 6.52zm0 -9.79l-13.6 0 2.43 -6.52 11.17 0 0 6.52zm0 -9.78l-9.96 0 8.72 -23.38c0.4,0.16 0.81,0.3 1.24,0.39l0 22.99zm-3.26 -30.98c0,-2.69 2.19,-4.89 4.89,-4.89 2.7,0 4.89,2.2 4.89,4.89 0,2.7 -2.19,4.89 -4.89,4.89 -2.7,0 -4.89,-2.19 -4.89,-4.89zm6.52 63.59l0 -9.78 18.46 0 3.65 9.78 -22.11 0zm0 0z"/>
  </g>
 </g>
</svg>
