<?xml version="1.0" encoding="UTF-8"?>
<!DOCTYPE svg PUBLIC "-//W3C//DTD SVG 1.1//EN" "http://www.w3.org/Graphics/SVG/1.1/DTD/svg11.dtd">
<!-- Creator: CorelDRAW 2020 (64-Bit Evaluation Version) -->
<svg xmlns="http://www.w3.org/2000/svg" xml:space="preserve" width="97px" height="80px" version="1.1" style="shape-rendering:geometricPrecision; text-rendering:geometricPrecision; image-rendering:optimizeQuality; fill-rule:evenodd; clip-rule:evenodd"
viewBox="0 0 91.61 75.44"
 xmlns:xlink="http://www.w3.org/1999/xlink"
 xmlns:xodm="http://www.corel.com/coreldraw/odm/2003">
 <defs>
  <style type="text/css">
   <![CDATA[
    .fil0 {fill:#0B78AD;fill-rule:nonzero}
   ]]>
  </style>
 </defs>
 <g id="Layer_x0020_1">
  <metadata id="CorelCorpID_0Corel-Layer"/>
  <g id="surface1">
   <path class="fil0" d="M26.95 68.71l16.16 -8.09 0 -13.21 -16.16 6.9 0 14.4zm-2.7 -19.12l17.01 -7.28 -17.01 -7.28 -17.01 7.28 17.01 7.28zm45.8 19.12l16.17 -8.09 0 -13.21 -16.17 6.9 0 14.4zm-2.69 -19.12l17.01 -7.28 -17.01 -7.28 -17.01 7.28 17.01 7.28zm-18.86 -12.33l16.17 -6.95 0 -11.2 -16.17 6.91 0 11.24zm-2.69 -15.96l18.56 -7.95 -18.56 -7.96 -18.57 7.96 18.57 7.95zm45.8 21.81l0 17.51c0,1.01 -0.27,1.96 -0.8,2.82 -0.53,0.87 -1.26,1.53 -2.19,1.98l-18.86 9.43c-0.7,0.4 -1.5,0.59 -2.4,0.59 -0.9,0 -1.7,-0.19 -2.4,-0.59l-18.86 -9.43c-0.14,-0.05 -0.24,-0.11 -0.29,-0.17 -0.06,0.06 -0.16,0.12 -0.3,0.17l-18.86 9.43c-0.7,0.4 -1.5,0.59 -2.4,0.59 -0.9,0 -1.7,-0.19 -2.4,-0.59l-18.86 -9.43c-0.93,-0.45 -1.66,-1.11 -2.19,-1.98 -0.53,-0.86 -0.8,-1.81 -0.8,-2.82l0 -17.51c0,-1.07 0.3,-2.05 0.91,-2.95 0.6,-0.9 1.39,-1.57 2.38,-2.02l18.27 -7.83 0 -16.84c0,-1.06 0.3,-2.05 0.9,-2.95 0.6,-0.89 1.4,-1.57 2.38,-2.01l18.86 -8.09c0.64,-0.28 1.35,-0.42 2.11,-0.42 0.75,0 1.46,0.14 2.1,0.42l18.86 8.09c0.98,0.44 1.78,1.12 2.38,2.01 0.61,0.9 0.9,1.89 0.9,2.95l0 16.84 18.28 7.83c1.01,0.45 1.81,1.12 2.4,2.02 0.59,0.9 0.88,1.88 0.88,2.95zm0 0z"/>
  </g>
 </g>
</svg>
