<?xml version="1.0" encoding="UTF-8"?>
<svg xmlns="http://www.w3.org/2000/svg" xmlns:xlink="http://www.w3.org/1999/xlink" width="110pt" height="110pt" viewBox="0 0 110 110" version="1.1">
<g id="surface1">
<path style=" stroke:none;fill-rule:nonzero;fill:rgb(4.313725%,47.058824%,67.843137%);fill-opacity:1;" d="M 21.363281 104.003906 C 17.839844 104.003906 14.144531 102.535156 11.273438 99.667969 L 11.054688 99.449219 C 8.566406 96.964844 7.035156 93.769531 6.746094 90.464844 C 6.441406 86.964844 7.550781 83.757812 9.871094 81.441406 L 46.6875 44.625 C 46.972656 44.34375 47.273438 44.074219 47.59375 43.824219 C 43.457031 34.027344 45.90625 23.96875 54.648438 15.226562 L 62.5 7.382812 C 70.902344 -1.027344 80.859375 1.484375 90.363281 5.445312 C 91.296875 5.835938 91.980469 6.667969 92.175781 7.660156 C 92.371094 8.652344 92.058594 9.679688 91.34375 10.398438 L 82.273438 19.464844 C 77.605469 24.132812 78.390625 26.832031 81.007812 29.449219 L 81.234375 29.667969 C 83.476562 31.910156 85.054688 31.933594 86.050781 31.761719 C 87.578125 31.496094 89.328125 30.382812 91.261719 28.453125 L 100.324219 19.382812 C 101.042969 18.664062 102.066406 18.351562 103.0625 18.550781 C 104.058594 18.746094 104.886719 19.425781 105.277344 20.359375 C 109.242188 29.875 111.753906 39.835938 103.339844 48.238281 L 95.503906 56.082031 C 86.332031 65.253906 75.691406 66.914062 64.726562 60.882812 C 63.257812 60.078125 62.71875 58.230469 63.527344 56.761719 C 64.335938 55.289062 66.179688 54.753906 67.652344 55.5625 C 76.242188 60.285156 83.945312 59.050781 91.207031 51.789062 L 99.042969 43.945312 C 103.28125 39.710938 104.007812 35.019531 101.304688 26.996094 L 95.554688 32.75 C 92.683594 35.621094 89.914062 37.257812 87.09375 37.75 C 83.488281 38.378906 80.085938 37.117188 76.984375 34.007812 L 76.757812 33.792969 C 73.480469 30.511719 69.347656 23.800781 77.980469 15.175781 L 83.730469 9.421875 C 75.710938 6.71875 71.027344 7.445312 66.792969 11.679688 L 58.941406 19.523438 C 51.257812 27.207031 49.671875 35.308594 54.226562 43.601562 C 54.652344 44.375 54.71875 45.292969 54.410156 46.121094 C 54.101562 46.949219 53.449219 47.601562 52.625 47.910156 C 51.957031 48.160156 51.40625 48.496094 50.988281 48.921875 L 14.164062 85.734375 C 13.136719 86.765625 12.652344 88.257812 12.796875 89.941406 C 12.964844 91.820312 13.871094 93.675781 15.355469 95.160156 L 15.570312 95.375 C 18.488281 98.289062 22.71875 98.820312 24.996094 96.546875 L 49.632812 71.90625 C 50.816406 70.71875 52.742188 70.71875 53.929688 71.90625 C 55.113281 73.09375 55.113281 75.015625 53.929688 76.203125 L 29.289062 100.84375 C 27.167969 102.964844 24.328125 104.003906 21.363281 104.003906 Z M 21.363281 104.003906 "/>
<path style=" stroke:none;fill-rule:nonzero;fill:rgb(74.509804%,21.176471%,38.431373%);fill-opacity:1;" d="M 84.921875 107.109375 C 81.859375 107.109375 79.042969 105.980469 76.992188 103.933594 L 45.824219 72.347656 C 44.785156 71.304688 43.976562 70.027344 43.429688 68.5625 C 43.011719 67.449219 43.28125 66.191406 44.125 65.351562 L 58.238281 51.242188 C 59.085938 50.394531 60.347656 50.125 61.46875 50.550781 C 62.972656 51.125 64.25 51.9375 65.265625 52.96875 L 96.414062 84.542969 C 98.71875 86.851562 99.828125 90.058594 99.523438 93.550781 C 99.238281 96.855469 97.707031 100.046875 95.207031 102.535156 L 95.070312 102.683594 C 92.234375 105.523438 88.5625 107.109375 84.921875 107.109375 Z M 50.066406 68 C 50.089844 68.023438 50.117188 68.046875 50.140625 68.074219 L 81.304688 99.652344 C 82.445312 100.792969 83.902344 101.039062 84.921875 101.039062 C 86.960938 101.039062 89.070312 100.097656 90.707031 98.460938 L 90.84375 98.308594 C 92.402344 96.753906 93.3125 94.90625 93.472656 93.03125 C 93.617188 91.347656 93.132812 89.851562 92.101562 88.820312 L 60.9375 57.230469 C 60.917969 57.214844 60.902344 57.199219 60.886719 57.179688 Z M 50.066406 68 "/>
<path style=" stroke:none;fill-rule:nonzero;fill:rgb(74.509804%,21.176471%,38.431373%);fill-opacity:1;" d="M 53.136719 63.28125 C 52.359375 63.28125 51.582031 62.988281 50.992188 62.394531 L 17.171875 28.574219 C 15.984375 27.390625 15.984375 25.46875 17.171875 24.28125 C 18.355469 23.09375 20.28125 23.09375 21.464844 24.28125 L 55.285156 58.097656 C 56.472656 59.28125 56.472656 61.207031 55.285156 62.394531 C 54.691406 62.984375 53.914062 63.28125 53.136719 63.28125 Z M 53.136719 63.28125 "/>
<path style=" stroke:none;fill-rule:nonzero;fill:rgb(74.509804%,21.176471%,38.431373%);fill-opacity:1;" d="M 13.996094 34.796875 C 13.894531 34.796875 13.789062 34.789062 13.6875 34.777344 C 12.777344 34.6875 11.957031 34.1875 11.457031 33.425781 L 1 17.503906 C 0.210938 16.304688 0.371094 14.710938 1.386719 13.691406 L 6.835938 8.234375 C 7.855469 7.214844 9.445312 7.050781 10.652344 7.84375 L 26.570312 18.296875 C 27.332031 18.800781 27.828125 19.617188 27.921875 20.527344 C 28.015625 21.433594 27.695312 22.335938 27.050781 22.984375 L 16.144531 33.902344 C 15.570312 34.476562 14.796875 34.796875 13.996094 34.796875 Z M 7.433594 16.238281 L 14.484375 26.972656 L 20.117188 21.328125 L 9.386719 14.277344 Z M 7.433594 16.238281 "/>
</g>
</svg>
