<?xml version="1.0" encoding="UTF-8"?>
<!DOCTYPE svg PUBLIC "-//W3C//DTD SVG 1.1//EN" "http://www.w3.org/Graphics/SVG/1.1/DTD/svg11.dtd">
<!-- Creator: CorelDRAW 2020 (64-Bit Evaluation Version) -->
<svg xmlns="http://www.w3.org/2000/svg" xml:space="preserve" width="38px" height="80px" version="1.1" style="shape-rendering:geometricPrecision; text-rendering:geometricPrecision; image-rendering:optimizeQuality; fill-rule:evenodd; clip-rule:evenodd"
viewBox="0 0 39.96 83.84"
 xmlns:xlink="http://www.w3.org/1999/xlink"
 xmlns:xodm="http://www.corel.com/coreldraw/odm/2003">
 <defs>
  <style type="text/css">
   <![CDATA[
    .fil0 {fill:#0B78AD}
   ]]>
  </style>
 </defs>
 <g id="Layer_x0020_1">
  <metadata id="CorelCorpID_0Corel-Layer"/>
  <g id="surface1">
   <path class="fil0" d="M20.29 0c-4.08,0 -7.39,3.31 -7.39,7.39 0,4.08 3.31,7.39 7.39,7.39 4.09,0 7.39,-3.31 7.39,-7.39 0,-4.08 -3.3,-7.39 -7.39,-7.39zm0 16.89c-3.22,0 -6.07,1.57 -7.78,4.02 -0.1,0.07 -0.18,0.13 -0.27,0.2l-10.62 6.07c-0.81,0.46 -1.38,1.25 -1.56,2.16 -0.18,0.92 0.06,1.86 0.64,2.59l9.43 12.01c0.52,0.81 1.36,1.34 2.31,1.45l0.33 3.69 -5.74 30.75c-0.31,1.15 0.04,2.37 0.92,3.18 0.88,0.8 2.14,1.04 3.25,0.62 1.12,-0.42 1.9,-1.43 2.03,-2.62l5.68 -30.34 2.77 0 4.62 30.34c0.25,1.74 1.86,2.93 3.59,2.68 1.73,-0.26 2.93,-1.87 2.67,-3.6l-4.74 -31.07 0.39 -4.42c0.67,-0.16 1.27,-0.53 1.72,-1.06l9.36 -12.07c0.56,-0.72 0.78,-1.65 0.61,-2.55 -0.18,-0.9 -0.74,-1.68 -1.53,-2.14l-10.36 -5.93c-1.72,-2.4 -4.54,-3.96 -7.72,-3.96zm9.17 12.14l2.58 1.45 -2.97 3.83 0.39 -5.28zm-18.34 0.06l0.53 6.54 -3.69 -4.75 3.16 -1.79zm0 0z"/>
  </g>
 </g>
</svg>
