<?xml version="1.0" encoding="UTF-8"?>
<svg xmlns="http://www.w3.org/2000/svg" xmlns:xlink="http://www.w3.org/1999/xlink" width="30pt" height="30pt" viewBox="0 0 30 30" version="1.1">
<g id="surface1">
<path style=" stroke:none;fill-rule:nonzero;fill:rgb(100%,100%,100%);fill-opacity:1;" d="M 15 0 C 23.285156 0 30 6.714844 30 15 C 30 23.285156 23.285156 30 15 30 C 6.714844 30 0 23.285156 0 15 C 0 6.714844 6.714844 0 15 0 Z M 15 0 "/>
<path style=" stroke:none;fill-rule:nonzero;fill:rgb(33.333333%,67.45098%,93.333333%);fill-opacity:1;" d="M 18.589844 7.195312 C 16.460938 7.25 14.753906 8.992188 14.753906 11.132812 C 14.753906 11.441406 14.789062 11.746094 14.855469 12.03125 C 11.582031 11.867188 8.679688 10.300781 6.738281 7.917969 C 6.398438 8.5 6.203125 9.175781 6.203125 9.898438 C 6.203125 11.265625 6.898438 12.46875 7.957031 13.175781 C 7.3125 13.15625 6.703125 12.976562 6.171875 12.683594 C 6.171875 12.699219 6.171875 12.714844 6.171875 12.734375 C 6.171875 14.640625 7.527344 16.230469 9.332031 16.59375 C 9 16.683594 8.652344 16.734375 8.292969 16.734375 C 8.039062 16.734375 7.792969 16.707031 7.550781 16.660156 C 8.054688 18.226562 9.507812 19.367188 11.230469 19.398438 C 9.882812 20.453125 8.1875 21.085938 6.339844 21.085938 C 6.023438 21.085938 5.707031 21.066406 5.398438 21.03125 C 7.144531 22.148438 9.214844 22.800781 11.4375 22.800781 C 18.683594 22.800781 22.644531 16.796875 22.644531 11.59375 C 22.644531 11.421875 22.640625 11.25 22.636719 11.082031 C 23.40625 10.527344 24.074219 9.832031 24.601562 9.042969 C 23.894531 9.355469 23.136719 9.566406 22.339844 9.664062 C 23.152344 9.175781 23.777344 8.402344 24.070312 7.484375 C 23.308594 7.933594 22.464844 8.261719 21.570312 8.441406 C 20.851562 7.675781 19.824219 7.195312 18.691406 7.195312 C 18.660156 7.195312 18.625 7.195312 18.589844 7.195312 Z M 18.589844 7.195312 "/>
</g>
</svg>
